<svg xmlns="http://www.w3.org/2000/svg" viewBox="0 0 182.75 143.33"><g fill="#ee3439"><path d="M155.22,136.93s-7.5-.43-16.27-.54c-6.85-.08-14.32-.22-19.78.3-6.1.57-11,1.44-14.07,3a6.81,6.81,0,0,1,1.05,3.34c7.3-2.62,47.52-1.4,49.07-1.63C154.15,139.73,155.22,136.93,155.22,136.93Z"/><path d="M93.51,139.5c-7-2.88-17.17-3.62-23.42-3.49H62.65l-8.46.18-10.87.36c2.12,5,.19,4.65,1.19,5.17,22.74-.86,45.11.94,47.19,1.4a3.57,3.57,0,0,1,.6.21A6.9,6.9,0,0,1,93.51,139.5Z"/><path d="M128.21,3.24c1.22-2.3,4.25-4.15,7-2.76,4.33,2.17,4,7.56-.35,9.27-2.9,1.14-5.18-.33-6.59-1.58a3,3,0,0,1-.86-3.27A11.35,11.35,0,0,1,128.21,3.24Z"/><path d="M182.21,59.83c-6.85-27.3-24.63-36-40.61-37.22,0-.14.07-.28.11-.42a12.22,12.22,0,0,1,6-7.16c.8-.29,3.59-6.41-3.12-6.21S135.5,16.15,135,18s-.92,4.58-1.85,4.46-.44-3.26-1.4-6.09c-2.12-6.33-7.12-6.53-8.58-5.95s-1,2.83.42,5.41-1,.83-1,.83l0,.06C102.29-3.94,59.08.62,45,30.62-7.67,34.29-13.4,93.93,24.11,105.71c21.13,5.62,18.2,16,18.66,22.36.47,16,34.69-6.61,52.43,10.87a70.69,70.69,0,0,0,8.48-.39c10-11.25,35.53-3.06,48.24-4.5,4.63-.73,2.49-8.76,2.49-16.16s7.24-12.65,7.24-12.65C177.22,92.44,184.93,77.54,182.21,59.83ZM156.15,84.64h0c-22.16,22-4.86,29.21-11.27,36-12.38,10.26-33.44-6.14-47.53,10.53-.72,1.18-2.67,1.44-5.34-.41-13.88-11.25-29.92-1.54-36.5-5.88l-11.46-23s-.4-2.12-4.29-3.44C3.67,90,13.21,41,48.27,43.27c8.47,2.76,6.37-21.9,36.44-25.42,23.05-2.47,36.31,13.57,37.47,15.88s2.08,2.24,4.47,1.7,36.65-5.32,39.73,28.81C165.15,72.46,163.71,76.72,156.15,84.64Z"/></g></svg>